# xmcd
#
# Track frame offsets: 
#        150
#        17932
#        33415
#        51720
#        71137
#        90422
#        102222
#        118830
#        135092
#        152487
#        169887
#        181365
#
# Disc length: 2685 seconds
#
# Revision: 2
# Processed by: cddbd v1.5.2PL0 Copyright (c) Steve Scherf et al.
# Submitted via: ExactAudioCopy v0.99pb5
#
DISCID=9f0a7b0c
DTITLE=John Fogerty - Blue Moon Swamp
DYEAR=1997
DGENRE=Folk
TTITLE0=Southern Streamline
TTITLE1=Hot Rod Heart
TTITLE2=Blueboy
TTITLE3=A Hundred And Ten In The Shade
TTITLE4=Rattlesnake Highway
TTITLE5=Bring It Down To Jelly Roll
TTITLE6=Walking In A Hurricane
TTITLE7=Swamp River Days
TTITLE8=Rambunctious Boy
TTITLE9=Joy Of My Life
TTITLE10=Blue Moon Nights
TTITLE11=Bad Bad Boy
EXTD=
EXTT0=
EXTT1=
EXTT2=
EXTT3=
EXTT4=
EXTT5=
EXTT6=
EXTT7=
EXTT8=
EXTT9=
EXTT10=
EXTT11=
PLAYORDER=
